<?xml version="1.0" standalone="no"?>
<!DOCTYPE svg PUBLIC "-//W3C//DTD SVG 20010904//EN"
 "http://www.w3.org/TR/2001/REC-SVG-20010904/DTD/svg10.dtd">
<svg version="1.0" xmlns="http://www.w3.org/2000/svg"
 width="700.000000pt" height="700.000000pt" viewBox="0 0 700.000000 700.000000"
 preserveAspectRatio="xMidYMid meet">
<metadata>
Created by potrace 1.11, written by Peter Selinger 2001-2013
</metadata>
<g transform="translate(0.000000,700.000000) scale(0.100000,-0.100000)"
fill="#000000" stroke="none">
<path d="M1535 5949 c-11 -7 -38 -27 -60 -45 -22 -17 -68 -46 -103 -63 -35
-18 -84 -47 -110 -65 -26 -19 -85 -50 -132 -71 -162 -70 -413 -208 -564 -309
-139 -94 -160 -105 -262 -134 -61 -18 -152 -41 -203 -51 -51 -10 -95 -22 -99
-26 -4 -3 23 -63 58 -133 57 -112 71 -131 113 -159 58 -39 106 -49 155 -34 21
6 84 48 143 93 58 46 124 92 146 102 91 41 236 -7 344 -113 67 -65 84 -113 76
-206 -4 -37 -1 -68 6 -82 25 -44 262 -277 340 -333 128 -91 165 -142 198 -267
29 -116 33 -293 14 -667 -19 -378 -14 -491 30 -666 64 -251 193 -469 395 -665
126 -122 149 -175 160 -367 7 -121 11 -144 37 -200 38 -80 69 -117 141 -164
154 -103 285 -144 456 -144 140 0 205 -16 310 -78 174 -102 279 -135 431 -135
121 0 174 14 345 93 194 89 274 111 475 129 148 14 222 43 346 137 66 50 101
94 136 170 21 46 26 78 33 187 5 73 12 146 16 162 14 61 54 123 136 210 194
208 280 343 346 540 67 203 85 379 69 684 -15 293 -15 628 1 719 17 98 46 179
80 222 16 19 60 57 98 85 73 52 307 279 339 329 16 23 20 48 20 120 1 129 35
182 178 268 58 35 81 43 132 46 75 5 108 -10 215 -98 97 -79 156 -110 215
-110 89 0 125 36 209 207 52 108 54 133 9 133 -36 0 -280 65 -340 91 -25 11
-75 40 -109 65 -170 121 -403 258 -581 341 -54 25 -122 61 -153 81 -30 19 -81
50 -113 68 -31 18 -79 51 -105 74 -48 40 -49 40 -129 40 -108 0 -218 -22 -289
-58 -33 -16 -81 -37 -109 -45 -73 -22 -187 -69 -294 -121 -116 -56 -143 -58
-331 -16 -111 24 -158 30 -264 30 -117 0 -136 -3 -220 -31 -108 -36 -219 -51
-294 -39 -30 5 -84 6 -120 1 -92 -11 -191 1 -292 34 -73 24 -105 29 -232 33
-137 4 -155 2 -292 -28 -196 -43 -226 -41 -382 33 -66 31 -165 70 -220 88 -54
17 -113 40 -129 49 -17 10 -64 28 -105 40 -91 26 -284 38 -315 19z m390 -113
c143 -43 230 -82 328 -145 51 -33 114 -65 140 -72 62 -15 165 -7 327 26 69 14
172 29 230 32 102 5 109 4 210 -30 158 -53 207 -61 400 -61 191 -1 238 8 387
66 108 43 199 43 384 0 224 -52 347 -38 528 60 232 126 303 150 446 151 148 1
237 -28 396 -133 52 -34 191 -111 309 -170 118 -60 278 -150 355 -200 168
-111 291 -171 419 -207 57 -16 96 -32 96 -40 0 -26 -48 -119 -74 -142 -18 -18
-41 -26 -79 -29 -70 -6 -117 15 -226 103 -95 75 -156 109 -227 126 -66 16
-113 44 -226 136 -117 95 -187 138 -276 170 -58 21 -84 25 -185 24 -67 0 -159
6 -210 15 -122 21 -179 14 -266 -31 -88 -47 -145 -106 -138 -144 9 -45 205
-475 221 -486 11 -6 19 -6 28 3 10 10 9 22 -6 60 -31 81 -32 108 -2 127 50 33
89 1 147 -122 29 -60 48 -87 69 -98 49 -25 60 -12 60 69 0 45 9 104 25 161 28
103 31 138 11 154 -18 15 -39 -13 -62 -82 -14 -43 -19 -48 -42 -45 l-27 3 -3
136 c-2 124 -1 138 18 162 50 63 205 74 348 23 317 -111 426 -346 208 -451
l-41 -20 3 -115 c5 -149 -15 -207 -97 -290 -56 -57 -353 -250 -384 -250 -21 0
-24 5 -46 105 -21 95 -29 109 -54 99 -23 -8 -21 -40 9 -164 24 -97 26 -131 34
-436 9 -359 14 -454 35 -699 13 -138 13 -169 1 -227 -17 -79 -23 -90 -140
-286 -158 -265 -182 -287 -302 -278 -78 6 -93 -2 -127 -70 -24 -48 -67 -94
-86 -94 -9 0 -36 14 -59 31 -39 29 -61 27 -26 -2 26 -22 44 -65 77 -192 28
-109 31 -137 31 -257 -1 -104 -5 -152 -21 -211 -75 -272 -223 -383 -483 -364
-167 12 -286 45 -340 96 -34 32 -142 175 -166 219 -23 45 -24 142 -1 186 10
19 34 40 60 53 60 29 97 71 158 181 105 187 104 186 102 280 -2 98 9 150 43
202 13 21 24 50 24 64 0 57 -183 292 -284 366 l-39 28 -290 0 c-356 0 -337 6
-468 -147 -172 -200 -187 -238 -128 -333 31 -51 33 -57 31 -146 -3 -111 11
-156 76 -259 26 -40 62 -99 81 -130 25 -43 49 -67 100 -100 74 -47 101 -87
101 -149 0 -48 -15 -80 -75 -156 -29 -36 -64 -82 -79 -102 -62 -83 -157 -119
-362 -137 -144 -13 -212 -3 -297 41 -99 53 -173 157 -226 316 -33 102 -34 160
-7 342 25 173 51 253 101 312 48 57 27 65 -35 13 -65 -55 -101 -47 -134 29
-13 29 -37 64 -55 78 -28 24 -37 26 -81 21 -65 -8 -124 15 -172 65 -69 71
-265 389 -294 474 -19 60 -21 155 -6 313 11 106 24 345 42 776 7 173 13 225
36 319 27 110 27 113 9 126 -28 20 -41 2 -61 -81 -23 -96 -31 -115 -50 -115
-29 0 -327 184 -387 239 -32 30 -70 77 -85 105 -25 48 -27 59 -27 180 0 143 2
137 -72 156 -51 13 -72 45 -80 125 -7 71 21 129 92 190 131 112 251 159 405
159 106 1 156 -12 191 -50 23 -25 24 -31 21 -157 -2 -106 -6 -134 -18 -144
-26 -19 -40 -5 -63 57 -26 71 -42 87 -65 65 -21 -21 -21 -20 11 -128 14 -51
29 -130 32 -177 l6 -85 30 3 c42 5 51 15 97 106 61 123 97 153 148 126 37 -20
41 -43 14 -99 -30 -66 -32 -101 -4 -101 27 0 34 14 144 262 99 224 111 271 79
301 -10 8 -50 34 -90 56 -92 52 -168 65 -268 45 -39 -7 -136 -13 -216 -14
-223 0 -310 -34 -551 -212 -135 -100 -163 -114 -246 -129 -66 -12 -82 -21
-180 -103 -160 -135 -250 -149 -338 -54 -44 48 -64 79 -64 104 0 19 11 24 87
43 110 28 243 91 448 213 237 141 355 205 615 332 352 172 366 177 475 173 59
-3 121 -14 180 -31z m1318 -3408 c35 -18 46 -40 47 -89 0 -30 -6 -54 -17 -68
l-18 -20 -60 20 c-74 25 -95 44 -95 81 0 64 83 108 143 76z m728 -17 c29 -29
38 -72 21 -99 -5 -7 -39 -23 -76 -36 l-67 -24 -14 21 c-18 26 -20 107 -2 129
36 46 97 50 138 9z"/>
<path d="M4915 4118 c-2 -7 -6 -33 -7 -57 -4 -66 -24 -72 -89 -30 -48 30 -62
34 -135 37 -200 9 -326 -90 -328 -258 -1 -36 3 -86 7 -112 8 -44 7 -47 -15
-50 -26 -3 -35 -32 -18 -53 7 -8 44 -24 84 -36 39 -11 113 -34 164 -50 51 -16
112 -29 137 -29 39 0 45 -3 51 -25 3 -14 4 -56 0 -93 -18 -210 -19 -292 -3
-334 24 -63 41 -70 145 -59 48 5 130 13 182 16 115 8 164 28 224 89 84 87 94
174 46 381 -12 50 -32 141 -45 202 -29 139 -65 210 -148 291 -72 71 -215 182
-234 182 -8 0 -16 -6 -18 -12z m-281 -221 c29 -24 29 -47 0 -47 -21 0 -94 38
-94 49 0 27 59 26 94 -2z"/>
<path d="M2350 4020 c-109 -17 -211 -67 -255 -124 -36 -47 -32 -64 18 -85 45
-20 71 -45 106 -103 27 -46 80 -93 129 -115 35 -16 92 -18 287 -10 22 1 54 -1
70 -3 l30 -5 3 59 c7 141 -45 294 -117 342 -21 13 -51 28 -68 33 -51 15 -145
20 -203 11z m254 -113 c17 -13 17 -14 -8 -30 -30 -20 -48 -21 -64 -5 -9 9 -8
16 5 30 19 21 42 23 67 5z"/>
<path d="M2786 1933 c-11 -11 -6 -23 8 -23 8 0 17 4 20 9 7 10 -19 23 -28 14z"/>
<path d="M4110 1925 c0 -10 7 -15 18 -13 21 4 19 22 -2 26 -10 2 -16 -3 -16
-13z"/>
<path d="M2415 1921 c-7 -12 12 -24 25 -16 11 7 4 25 -10 25 -5 0 -11 -4 -15
-9z"/>
<path d="M2590 1890 c0 -11 4 -20 9 -20 11 0 22 26 14 34 -12 12 -23 5 -23
-14z"/>
<path d="M4535 1840 c-4 -6 -3 -16 3 -22 6 -6 12 -6 17 2 4 6 3 16 -3 22 -6 6
-12 6 -17 -2z"/>
<path d="M4327 1825 c-7 -16 8 -29 23 -20 10 6 2 35 -10 35 -4 0 -10 -7 -13
-15z"/>
<path d="M2967 1774 c-8 -8 3 -34 14 -34 5 0 9 9 9 20 0 19 -11 26 -23 14z"/>
<path d="M3986 1751 c-3 -5 0 -14 8 -20 10 -9 15 -8 19 3 9 22 -15 37 -27 17z"/>
<path d="M2320 1714 c0 -17 22 -14 28 4 2 7 -3 12 -12 12 -9 0 -16 -7 -16 -16z"/>
<path d="M2762 1698 c5 -15 28 -18 29 -3 0 6 -7 12 -17 13 -10 3 -15 -1 -12
-10z"/>
<path d="M2507 1666 c-6 -15 1 -26 15 -26 11 0 10 27 -1 34 -5 3 -11 0 -14 -8z"/>
<path d="M4147 1626 c-6 -15 1 -26 15 -26 4 0 8 9 8 20 0 23 -15 27 -23 6z"/>
<path d="M4365 1581 c-7 -12 12 -24 25 -16 11 7 4 25 -10 25 -5 0 -11 -4 -15
-9z"/>
<path d="M4570 1582 c0 -14 11 -21 26 -15 21 8 17 23 -6 23 -11 0 -20 -4 -20
-8z"/>
<path d="M2935 1541 c-3 -5 -1 -12 5 -16 12 -7 30 2 30 16 0 12 -27 12 -35 0z"/>
<path d="M3964 1537 c-8 -21 2 -35 16 -21 5 5 6 15 0 24 -8 12 -10 12 -16 -3z"/>
<path d="M2450 1475 c0 -10 7 -15 18 -13 21 4 19 22 -2 26 -10 2 -16 -3 -16
-13z"/>
<path d="M2695 1460 c-9 -15 4 -30 20 -23 8 3 15 9 15 13 0 12 -29 20 -35 10z"/>
<path d="M4475 1451 c-3 -5 -1 -12 5 -16 12 -7 30 2 30 16 0 12 -27 12 -35 0z"/>
<path d="M4175 1430 c-4 -6 -3 -16 3 -22 6 -6 12 -6 17 2 4 6 3 16 -3 22 -6 6
-12 6 -17 -2z"/>
</g>
</svg>
