<svg xmlns="http://www.w3.org/2000/svg" width="1200px" height="1200px" viewBox="0 0 1200 1200">
  <g id="zelda">
    <g id="face">
      <path id="outline" class="cls-1" d="M946.18,87c-27.67-20.62-58.73-35.43-89.38-51C840,27.34,823.9,16.61,808.05,5.79c-4.37-3-9.29-4.53-14.45-5.79h0c-2.87.81-5.73.75-8.59,1h-.07c-7.23.45-14.59,2.63-21.28,5.33C736,17.48,707.42,26.11,681.09,40.8c-10.52,5.88-23.28,0-34.7-2.77-28.12-6.74-55.68-8.32-83.48,2.67-12.32,4.88-25.78,4.8-39.33,1.34-6.61-1.69-14.35,1-21.57,1.89-16,1.94-30-6.31-45-9.09-18.48-3.41-38-4.83-55.84.74-26.07,8.12-49.57,7.56-73.56-6.78-11.56-6.91-26.66-7.69-38.52-14.25C270.65,4.36,251.43,2.07,231.19,2.12c-11.15,0-15.37,10.42-23.83,14.7q-15.27,7.71-30.55,15.45l-.24.13c-.67.36-1.34.7-2,1l-.31.15c-25.3,12.91-50.43,26.13-74.83,40.6C76.2,87.94,55,105,27.33,109c-9.09,1.31-17.57,6.6-27.33,4.16v3.92c2.52-.19,3,1.85,3.64,3.39,3.14,7.16,7.22,13.86,10.18,21.12,3.62,8.87,10.4,14.23,19.09,17.63,8,3.11,15.19,2.24,21.91-3,5.62-4.4,11.36-8.65,16.83-13.25,5.74-4.82,12.23-8.52,18.64-12.32a21.46,21.46,0,0,1,20-1.44c12.24,5,23.12,12.37,33.76,20.07a18.71,18.71,0,0,1,8,17.37c-.33,4.88.19,9.81-.12,14.68A22.11,22.11,0,0,0,158.74,199c9.22,9.38,18.42,18.76,28.35,27.42,8.6,7.5,17.43,14.54,27.53,19.88a10.19,10.19,0,0,1,5.47,6.52c1,3.75,3.6,6.53,6,9.37a19.87,19.87,0,0,1,4.61,10c1.46,9,4.59,17.67,5.18,26.87a299.33,299.33,0,0,1,0,40.07,24.29,24.29,0,0,0-.3,2.92c.93,16.19-1.37,32.24-2.28,48.34-.66,11.71.15,23.49-1.54,35.16-.62,4.26.46,8.46.86,12.66,3.69,38.24,14.54,73.88,38.51,104.43,9.41,12,19,23.89,30.56,34,6.93,6.07,13.12,13.07,15.72,22.49a34.77,34.77,0,0,1,1.52,10.6,136.81,136.81,0,0,0,1.16,23.43c3,22.55,12.82,40.86,34.24,50.46,12.57,5.64,24.46,13.56,38.94,14.07,2.73.09,5.47.42,8.22.43,9.37.05,18.75-.32,28.08,1,7.53,1.08,15.08,1.77,21.4,6.88,14,11.3,30.3,17.16,47.74,20.36,5.88,1.08,11.79,2,17.59,3.59a11.59,11.59,0,0,0,5.29.34c15.18-3.13,30.67-5.08,45-11.51a83.52,83.52,0,0,0,18.26-11.06,38,38,0,0,1,18-7.82,156.43,156.43,0,0,1,29-1.79c14.22.25,27.61-2.49,39.67-10.58,3.89-2.6,8.61-3.41,12.73-5.86,16.67-9.93,25.35-24.83,28.77-43.66,1.69-9.26,1.7-18.49,1.67-27.78a38,38,0,0,1,11.49-28.1,402.35,402.35,0,0,0,35.13-39.78c13.65-17.85,22.32-38.16,28.79-59.49,5.68-18.68,8-37.91,8-57.42.06-19.73-1.38-39.39-2.42-59.08-1.08-20.47-2.17-41.06-1.3-61.6.53-12.58,4.15-24.73,6.56-37a10.65,10.65,0,0,1,3-5.53,29.29,29.29,0,0,0,3.58-4.2c0-.06.07-.11.1-.16a5.14,5.14,0,0,1,.32-.49.6.6,0,0,1,.09-.15,16.17,16.17,0,0,0,2.21-5.75c.43-2.44,2.45-3.77,4.47-4.88,17.84-9.85,32.46-23.55,45.81-38.79,2.89-3.3,6.1-6.3,9.18-9.43a20.07,20.07,0,0,0,6.1-15.41c-.17-5.06.29-10.14-.1-15.17-.71-9.4,3.56-16.2,10.87-21,8.25-5.43,16.39-11.06,25.14-15.71,9.44-5,18.2-4.78,27.45,1,10.23,6.43,19.24,14.35,28.59,21.84,13.17,10.54,31.83,7,39.75-8.25,4.19-8.08,7.73-16.52,11.71-24.71.8-1.62,1.1-3.91,3.75-4v-3.92C995.32,110.43,969.23,104.13,946.18,87ZM1006.64,127c-3.48,8.54-6.74,18.87-15.47,21.57-10.78,3.34-21.39.66-31.56-7.41-13-10.3-24.23-22.21-43.4-25.66-15.16-2.72-28.15-18.25-41.88-28.4-18-13.28-37.62-22.79-60.17-19.56-20.58,3-40.64-10-60.92-.74a87.16,87.16,0,0,0-16.42,9.47c-6.78,5.17-12,10.69-7,21.08,9.76,20.17,18.24,41,27.25,61.5,1.41,3.22,4.57,4.76,7,3.16,1.25-.85.83-5.39,0-7.9-1.1-3.44-3.65-6.39-4.88-9.81-1.46-4.1-.87-8.2,3.09-10.84,4.37-2.9,8.58-2.05,12.4,1.29,7.81,6.83,8.65,17.55,14.1,25.79,3.29,5,7.41,8.24,12.56,7,3.78-1,1.73-6.28,1.41-9.39-1.46-14.13,4.9-26.59,7.86-39.75.86-3.8.48-7.64-2.47-8.88s-4.52,2.85-5.77,5.29a42.39,42.39,0,0,0-3.06,8.59c-.91,3.36-1.86,7.16-6,6.55-4.44-.65-5.29-4.71-5.3-8.71,0-7,.78-14.13-.12-21-2-15.34,6.95-21.25,19.4-23.8,25.1-5.12,68.86,14.92,79.6,36,8,15.74,1.07,31.48-15.45,35.38-4,.94-5.16,4.17-4.48,8,6,33.5-3.3,52.53-32.86,69-10.91,6.09-21.38,13.05-31.73,20.09-5.58,3.79-8.63,1.81-10.16-3.57a158.25,158.25,0,0,1-4-19.22c-.51-3.23-1.46-6.36-4.8-6-3.13.37-4.28,3.46-3.63,6.87,3.28,17.27,9.83,34.74,8.92,51.81-1.25,23.51.95,46.7,1.44,70,.53,25.42,2.48,50.88,5.28,76.16,2.33,21.16-6.63,37.68-17.54,54-8.19,12.26-14.13,25.86-23.59,37.42-7.27,8.88-16.17,13.87-26.53,10.47-13.3-4.36-15.17,6.84-18.54,13.08-6.86,12.66-12.65,14.38-23,3.75a32.89,32.89,0,0,0-4.09-3.08c.85,1.41,1.41,3.2,2.61,4.19,10.82,8.93,9.18,22.76,13.11,34.32,5.61,16.5,6.06,34.3,3.31,50.9-6,36.22-22,68.36-66.36,66.91-17.2-.56-34.79-2-50.5-9.69-6.43-3.17-12-9.62-16.08-15.84-7.84-12-20.85-21.39-18-39,1.33-8.31,2.43-14.31,11.47-17.54,14.21-5.08,19.09-18.79,25.25-31.09a86.72,86.72,0,0,1,6.44-10.14c6-8.68,8.52-18,6.64-28.65-2-11.46,1.24-21.74,8.51-30.81A9,9,0,0,0,609,500c-10.8-17.83-23-34.69-39.06-48a22,22,0,0,0-14.31-5.31c-22.6.26-45.22.59-67.8-.09-11.88-.36-20.37,3.3-28.1,12.73-9.55,11.65-20.16,22.27-28.43,35.16-5,7.72-4.54,14.2.25,20.18,5.62,7,8.05,14.59,6.32,22.9-3,14.44,1.74,26.15,10.2,37.24,9.26,12.15,12.19,28.92,28.45,36,15.77,6.86,18.22,26.84,6.27,39.76-5.29,5.72-9.8,12.2-14.44,18.5-12.42,16.84-30.82,19.51-49.46,20.83-12.75.91-25.09,3.37-38.48-1.13-20.89-7-31.76-21.74-39.35-40.74-5.06-12.65-9.22-25.47-7.59-39.67,4.3-24.16,2-50.39,20.87-70.4.57-.62.21-2.14.29-3.23-1.09.34-2.44.38-3.21,1.08-4,3.59-6.87,8.46-12.9,9.31-12.58,1.79-10.59-11-15.61-16.54-4.38-4.85-5.58-9.47-14.37-7.33C293.31,524.9,280,515,269.49,496.61c-10.11-17.68-23.13-34-30.89-52.62-5.56-13.32-3-29.44-1.29-44.35.12-1.1.69-2.16.75-3.26,1.24-24.9,1.88-49.85,3.8-74.7,2.46-32-1.59-64.66,9.56-95.8,1.31-3.66,1.84-8.92-3.2-9.64-4.85-.69-4.11,4.71-5.41,8-2.07,5.34-2.64,10.77-3.61,16.27-.72,4.06-3.19,9.35-9.13,5.1-18.68-13.37-41.13-20.79-57.33-38.14C159.24,193.05,157.69,176.14,161,158c1.14-6.27.6-10.5-7-10.27-6.45.18-11.7-3.77-13.39-8.7-3.41-9.91-4.93-21.48,2.56-29.83,22-24.52,49.62-36.57,82.63-32,11.09,1.52,19.51,7.94,17.92,21.93-.92,8-.33,16.28-.48,24.43-.07,3.84-2.62,6.5-5.82,6.69-2.82.16-4.68-2.62-5.5-5.83a43,43,0,0,0-4.07-10.75c-1.08-1.91-2.62-5.6-5.5-4.14-2.69,1.36-3.6,4.93-2.64,8.09C224.39,133,230,148.31,228,165c-.11.89.95,2.76,1.48,2.76,4.45,0,9-.57,11.46-4.83,3.57-6.29,6.43-13,9.87-19.35,3.92-7.22,8.76-15.26,18.2-10.46,10.52,5.35,2.59,13.21-.12,19.46a17.17,17.17,0,0,0-1.49,9.24c0,.31,2,.57,3,.55,3.84-.06,4.82-3.1,6.1-6,9.38-21,19.3-41.87,28.07-63.17,5.33-13-7.41-16-14.33-20.7-12.91-8.79-26.64-11-42.85-6.29-12.26,3.57-26.31.8-39.57,1-25.32.39-45.06,13.54-64.91,27.61-13.51,9.58-24.72,22.81-44.45,23.46-9.25.3-18.34,11.56-27.15,18.32-9.58,7.34-18.56,15-32.08,13.08-8.61-1.2-24.13-17.48-23.31-26.31A3.24,3.24,0,0,1,18,121.18c37.4-5.68,66.56-28.5,98.33-46.54A1279.21,1279.21,0,0,1,233.65,16c19.41-8.53,40.48.21,60.29,6,14.63,4.26,27.85,11.47,39.92,20.58,14.93,11.27,31,9.16,47.76,6.49,19.62-3.14,38.79-9.21,59.07-8.51,16.52.58,30.52,10.47,46,12.41,30.94,3.86,62,5.1,91.93-8.54,19-8.64,39.08-3.79,58.13,1.53,29.47,8.22,54.45,3.62,81.3-13.54C755.31,8.6,795.83,4.59,834.84,33.7c24.61,18.36,54.85,26.87,80.53,43.45,20.6,13.31,40.12,28.39,63.53,36.61a193.73,193.73,0,0,0,23.62,6.71C1006.89,121.4,1008.42,122.64,1006.64,127ZM573.92,515.36c6.34.59,13,7.92,11.68,15.57-1.82,10.47-14.4,6.9-21,12.52-2.18,1.87-7.26-5.79-6.65-11.74C557.19,520.25,564.46,514.47,573.92,515.36Zm-99.51,28.09c-6.71-5.71-19.47-1.89-21.41-12.57-1.4-7.78,5.85-15,11.82-15.58,9.41-.85,17.77,4.25,16.79,16.25C482.18,538,477,545.63,474.41,543.45Z" />
      <path id="fill" class="cls-2" d="M1002.52,120.47a193.73,193.73,0,0,1-23.62-6.71c-23.41-8.22-42.93-23.3-63.53-36.61-25.68-16.58-55.92-25.09-80.53-43.45-39-29.11-79.53-25.1-116.75-1.33-26.85,17.16-51.83,21.76-81.3,13.54-19-5.32-39.17-10.17-58.13-1.53-29.95,13.64-61,12.4-91.93,8.54-15.52-1.94-29.52-11.83-46-12.41-20.28-.7-39.45,5.37-59.07,8.51-16.78,2.67-32.83,4.78-47.76-6.49C321.79,33.42,308.57,26.21,293.94,22c-19.81-5.76-40.88-14.5-60.29-6A1279.21,1279.21,0,0,0,116.34,74.64C84.57,92.68,55.41,115.5,18,121.18a3.24,3.24,0,0,0-2.12,2.21c-.82,8.83,14.7,25.11,23.31,26.31,13.52,1.89,22.5-5.74,32.08-13.08,8.81-6.76,17.9-18,27.15-18.32,19.73-.65,30.94-13.88,44.45-23.46,19.85-14.07,39.59-27.22,64.91-27.61,13.26-.2,27.31,2.57,39.57-1,16.21-4.72,29.94-2.5,42.85,6.29,6.92,4.72,19.66,7.75,14.33,20.7-8.77,21.3-18.69,42.12-28.07,63.17-1.28,2.87-2.26,5.91-6.1,6-1.05,0-3-.24-3-.55a17.17,17.17,0,0,1,1.49-9.24c2.71-6.25,10.64-14.11.12-19.46-9.44-4.8-14.28,3.24-18.2,10.46-3.44,6.37-6.3,13.06-9.87,19.35-2.42,4.26-7,4.87-11.46,4.83-.53,0-1.59-1.87-1.48-2.76,2.07-16.68-3.57-32-8.26-47.42-1-3.16,0-6.73,2.64-8.09,2.88-1.46,4.42,2.23,5.5,4.14a43,43,0,0,1,4.07,10.75c.82,3.21,2.68,6,5.5,5.83,3.2-.19,5.75-2.85,5.82-6.69.15-8.15-.44-16.38.48-24.43,1.59-14-6.83-20.41-17.92-21.93-33-4.55-60.65,7.5-82.63,32-7.49,8.35-6,19.92-2.56,29.83,1.69,4.93,6.94,8.88,13.39,8.7,7.6-.23,8.14,4,7,10.27-3.3,18.17-1.75,35.08,11.75,49.55,16.2,17.35,38.65,24.77,57.33,38.14,5.94,4.25,8.41-1,9.13-5.1,1-5.5,1.54-10.93,3.61-16.27,1.3-3.34.56-8.74,5.41-8,5,.72,4.51,6,3.2,9.64-11.15,31.14-7.1,63.81-9.56,95.8-1.92,24.85-2.56,49.8-3.8,74.7-.06,1.1-.63,2.16-.75,3.26-1.67,14.91-4.27,31,1.29,44.35,7.76,18.61,20.78,34.94,30.89,52.62C280,515,293.31,524.9,308.54,521.18c8.79-2.14,10,2.48,14.37,7.33,5,5.54,3,18.33,15.61,16.54,6-.85,8.94-5.72,12.9-9.31.77-.7,2.12-.74,3.21-1.08-.08,1.09.28,2.61-.29,3.23-18.86,20-16.57,46.24-20.87,70.4-1.63,14.2,2.53,27,7.59,39.67,7.59,19,18.46,33.72,39.35,40.74,13.39,4.5,25.73,2,38.48,1.13,18.64-1.32,37-4,49.46-20.83,4.64-6.3,9.15-12.78,14.44-18.5,11.95-12.92,9.5-32.9-6.27-39.76-16.26-7.09-19.19-23.86-28.45-36-8.46-11.09-13.21-22.8-10.2-37.24,1.73-8.31-.7-15.88-6.32-22.9-4.79-6-5.21-12.46-.25-20.18,8.27-12.89,18.88-23.51,28.43-35.16,7.73-9.43,16.22-13.09,28.1-12.73,22.58.68,45.2.35,67.8.09a22,22,0,0,1,14.31,5.31c16.11,13.35,28.26,30.21,39.06,48a9,9,0,0,1-.48,10.2C601.25,519.23,598,529.51,600,541c1.88,10.68-.65,20-6.64,28.65a86.72,86.72,0,0,0-6.44,10.14c-6.16,12.3-11,26-25.25,31.09-9,3.23-10.14,9.23-11.47,17.54-2.82,17.64,10.19,27.07,18,39,4.07,6.22,9.65,12.67,16.08,15.84,15.71,7.74,33.3,9.13,50.5,9.69,44.34,1.45,60.36-30.69,66.36-66.91,2.75-16.6,2.3-34.4-3.31-50.9-3.93-11.56-2.29-25.39-13.11-34.32-1.2-1-1.76-2.78-2.61-4.19a32.89,32.89,0,0,1,4.09,3.08c10.33,10.63,16.12,8.91,23-3.75,3.37-6.24,5.24-17.44,18.54-13.08,10.36,3.4,19.26-1.59,26.53-10.47,9.46-11.56,15.4-25.16,23.59-37.42,10.91-16.33,19.87-32.85,17.54-54-2.8-25.28-4.75-50.74-5.28-76.16-.49-23.29-2.69-46.48-1.44-70,.91-17.07-5.64-34.54-8.92-51.81-.65-3.41.5-6.5,3.63-6.87,3.34-.4,4.29,2.73,4.8,6a158.25,158.25,0,0,0,4,19.22c1.53,5.38,4.58,7.36,10.16,3.57,10.35-7,20.82-14,31.73-20.09,29.56-16.5,38.82-35.53,32.86-69-.68-3.83.51-7.06,4.48-8,16.52-3.9,23.47-19.64,15.45-35.38-10.74-21.09-54.5-41.13-79.6-36-12.45,2.55-21.41,8.46-19.4,23.8.9,6.9.11,14,.12,21,0,4,.86,8.06,5.3,8.71,4.16.61,5.11-3.19,6-6.55a42.39,42.39,0,0,1,3.06-8.59c1.25-2.44,3-6.47,5.77-5.29s3.33,5.08,2.47,8.88c-3,13.16-9.32,25.62-7.86,39.75.32,3.11,2.37,8.43-1.41,9.39-5.15,1.29-9.27-2-12.56-7-5.45-8.24-6.29-19-14.1-25.79-3.82-3.34-8-4.19-12.4-1.29-4,2.64-4.55,6.74-3.09,10.84,1.23,3.42,3.78,6.37,4.88,9.81.79,2.51,1.21,7.05,0,7.9-2.39,1.6-5.55.06-7-3.16-9-20.53-17.49-41.33-27.25-61.5-5-10.39.23-15.91,7-21.08a87.16,87.16,0,0,1,16.42-9.47c20.28-9.3,40.34,3.69,60.92.74,22.55-3.23,42.2,6.28,60.17,19.56,13.73,10.15,26.72,25.68,41.88,28.4,19.17,3.45,30.43,15.36,43.4,25.66,10.17,8.07,20.78,10.75,31.56,7.41,8.73-2.7,12-13,15.47-21.57C1008.42,122.64,1006.89,121.4,1002.52,120.47ZM340.66,624a3.3,3.3,0,0,1-2.31-2.27c-.06-.76,1.31-2.16,2.2-2.3s1.83,1,3.53,2.13C342.44,622.85,341.47,624.13,340.66,624Zm11.85-31.46a3.23,3.23,0,0,1,2-2.5c.81-.17,1.9,1,3.64,2-1.56,1.33-2.44,2.65-3.29,2.63A3.18,3.18,0,0,1,352.51,592.58Zm7.22,66.64a3.33,3.33,0,0,1-2.11-2.48c0-.8,1.47-2.1,2.37-2.17s1.73,1.24,3.32,2.51C361.59,658.18,360.52,659.39,359.73,659.22Zm8.75-25.56c-1.27-1.74-2.48-2.67-2.43-3.52s1.26-1.83,2-2.74c.87.77,2.25,1.44,2.44,2.36S369.53,631.72,368.48,633.66Zm11.72-34.29c-1.23-1.73-2.46-2.71-2.38-3.55s1.39-1.76,2.16-2.63c.82.81,2.15,1.54,2.31,2.47S381.28,597.56,380.2,599.37ZM395.68,663a3.29,3.29,0,0,1-2.23-2.37,3.23,3.23,0,0,1,2.2-2.36c.8-.12,1.8,1.15,3.4,2.31C397.45,661.81,396.47,663.11,395.68,663ZM399,349.36c-12.66-4-25.17-1.16-35.48.85-19.29-.61-32.85-7.1-40.78-23.13-3.46-7-8.72-11.46-16.4-13.13-3.09-.68-5.49-2.19-3.58-6.2,11.89-24.93,67.35-33.35,85-12.64,13,15.28,11.83,34.47,13.1,52.88C400.93,348.43,399.48,349.51,399,349.36ZM405.81,627a3.22,3.22,0,0,1-2.24-2.29,3.26,3.26,0,0,1,2.14-2.39c.82-.12,1.83,1.11,3.48,2.24C407.59,625.8,406.64,627.09,405.81,627Zm2.62-33.22a3.31,3.31,0,0,1-2.32-2.29c0-.81,1.35-2.2,2.25-2.33s1.84,1.1,3.52,2.24C410.23,592.62,409.25,593.89,408.43,593.79Zm26.9,18.6c.85.76,2.21,1.42,2.4,2.33s-.88,2-1.83,3.84c-1.35-1.67-2.66-2.58-2.63-3.45S434.59,613.29,435.33,612.39Zm-4,33c.85,0,1.74,1.34,3.24,2.65-1.63,1-2.7,2.23-3.52,2.08a2.37,2.37,0,0,1,.28-4.73Zm149.4,7.21c-1.08-1.75-2.23-2.79-2.12-3.66s1.44-1.67,2.23-2.49c.78.85,2.11,1.65,2.19,2.55S581.85,650.89,580.69,652.61Zm4.67-31.43c-1.28-1.68-2.55-2.61-2.51-3.49s1.31-1.82,2-2.73c.84.78,2.2,1.48,2.37,2.39S586.34,619.32,585.36,621.18Zm17.7-27.79a3.32,3.32,0,0,1-2-2.55,3.21,3.21,0,0,1,2.36-2.17c.84,0,1.73,1.31,3.23,2.6C604.94,592.34,603.85,593.56,603.06,593.39Zm5.55,45.21c-.86-.76-2.26-1.42-2.43-2.31s1-1.94,2-3.73c1.24,1.61,2.49,2.53,2.45,3.38S609.34,637.72,608.61,638.6Zm3.08,29.3c-.73-.88-2-1.73-2-2.64s1.21-1.79,2.44-3.42c1,1.8,2.17,2.89,2,3.75S612.55,667.14,611.69,667.9Zm23.47-58.41c-.88-.75-2.27-1.39-2.47-2.3s.88-2,1.84-3.86c1.34,1.64,2.64,2.54,2.62,3.4S635.87,608.57,635.16,609.49Zm5.3,35.15a3.28,3.28,0,0,1-2.19-2.38c0-.78,1.39-2.11,2.29-2.22s1.77,1.12,3.41,2.29C642.27,643.52,641.26,644.77,640.46,644.64Zm16.31,18.69a2.31,2.31,0,0,1-.35-4.61c.81-.18,1.9,1,3.68,2C658.5,662.06,657.61,663.37,656.77,663.33Zm8.08-55.75c-.77-.84-2.06-1.63-2.16-2.55s1.06-1.86,2.22-3.66c1.16,1.83,2.32,2.87,2.21,3.73S665.66,606.76,664.85,607.58Zm6.28,36.59a2.33,2.33,0,0,1-.39-4.63c.82-.16,1.9,1,3.58,2C672.84,642.85,672,644.18,671.13,644.17Zm59.89-370c21,14.84,41.2,30.69,45.56,58.43,3.5,22.27,11.73,43.66,12.26,66.42.38,16.25-18.74,35.41-34.59,35.86-15.53.45-31,2.33-46.39,3.93-9.63,1-12.75-11.74-13.42-21-1.17-16.14,5.53-31.81,3.43-48.17-.7-5.44,0-7.4-7.92-6.67-9.33.87-19.23-4.3-28.85-7-8-2.24-16-4.7-24-7-3.7-1.07-5.17-4.12-5.35-7.35-.2-3.53,3-1.89,4.8-2.08,2.44-.28,3-1.7,2.73-3.69-.63-4.33-1.68-8.61-2.11-12.95-2.81-28.34,13.86-46.06,44.84-46.06,9.23-1.44,18.66,1.75,26.93,8.94,1.88,1.64,4.21,2.52,6.73,1.2,3-1.56,2.8-4.38,3-7.2.22-3.92-.27-10.6,1.34-11.2C724.25,267,727.53,271.7,731,274.17Z" />
    </g>
    <g id="nostril">
      <path id="left" class="cls-2" d="M481.61,531.55c.57,6.42-4.63,14.08-7.2,11.9-6.71-5.71-19.47-1.89-21.41-12.57-1.4-7.78,5.85-15,11.82-15.58C474.23,514.45,482.59,519.55,481.61,531.55Z" />
      <path id="right" class="cls-2" d="M585.6,530.93c-1.82,10.47-14.4,6.9-21,12.52-2.18,1.87-7.26-5.79-6.65-11.74-.81-11.46,6.46-17.24,15.92-16.35C580.26,516,586.93,523.28,585.6,530.93Z" />
    </g>
    <g id="whisker">
      <g id="right-2" data-name="right">
        <path class="cls-3" d="M581.57,649.05c.9.57,2.34,2.24,3.52,2.08a3,3,0,0,0,2.08-2.47,3,3,0,0,0-2.36-2.26C583.6,646.4,582.38,648.34,581.57,649.05Z" />
        <path class="cls-3" d="M606.91,625.57c.85.66,2.18,2.5,3.38,2.44a2.94,2.94,0,0,0,2.24-2.29,3,3,0,0,0-2.14-2.39C609.2,623.21,607.79,625,606.91,625.57Z" />
        <path class="cls-3" d="M580.2,619.56c.72-.9,2.29-2,2.58-3.14a1.7,1.7,0,0,0-.52-1.46c-.31-.37-1.24-1.52-1.6-1.48s-1.35,1-1.65,1.28a1.64,1.64,0,0,0-.66,1.27C578.42,617.24,579.67,618.53,580.2,619.56Z" />
        <path class="cls-3" d="M652.79,658.08c.9.58,2.39,2.3,3.58,2.14a3,3,0,0,0,2.11-2.48,3,3,0,0,0-2.37-2.17C654.91,655.56,653.63,657.41,652.79,658.08Z" />
        <path class="cls-3" d="M672,622.6c.86.66,2.21,2.49,3.42,2.44a3,3,0,0,0,2.31-2.27,3,3,0,0,0-2.2-2.3C674.35,620.35,672.93,622,672,622.6Z" />
        <path class="cls-3" d="M647.62,634.66c.66-.91,2.07-2,2.37-3.14s-1.26-2.28-1.91-3.12c-.77.68-2.54,1.43-2.46,2.67S647.06,633.63,647.62,634.66Z" />
        <path class="cls-3" d="M633.81,596.66a2.3,2.3,0,0,0,.58,1.49c.5.75,1.05,1.45,1.51,2.22.65-.92,2.12-2.07,2.35-3.23s-1.46-2.18-2.13-2.95C635.4,594.9,634,595.57,633.81,596.66Z" />
        <path class="cls-3" d="M617.05,661.59c.83.64,2.19,2.49,3.37,2.42a3,3,0,0,0,2.23-2.37,3,3,0,0,0-2.2-2.36C619.26,659.19,617.91,661,617.05,661.59Z" />
        <path class="cls-3" d="M604.22,592.41c.88.65,2.24,2.45,3.45,2.38a2.31,2.31,0,0,0,.07-4.62C606.53,590.07,605.12,591.79,604.22,592.41Z" />
        <path class="cls-3" d="M658,593.08c.83.71,2.07,2.61,3.29,2.63a2.91,2.91,0,0,0,2.35-2.13,3,3,0,0,0-2-2.5C660.4,590.89,658.88,592.53,658,593.08Z" />
      </g>
      <g id="left-2" data-name="left">
        <path class="cls-3" d="M434.53,648.05c-.91.57-2.34,2.24-3.52,2.08a3,3,0,0,1-2.08-2.47,3,3,0,0,1,2.36-2.26C432.49,645.4,433.72,647.34,434.53,648.05Z" />
        <path class="cls-3" d="M409.19,624.57c-.86.66-2.18,2.5-3.38,2.44a2.93,2.93,0,0,1-2.24-2.29,3,3,0,0,1,2.14-2.39C406.89,622.21,408.31,624,409.19,624.57Z" />
        <path class="cls-3" d="M435.9,618.56c-.73-.9-2.29-2-2.59-3.14a1.7,1.7,0,0,1,.52-1.46c.31-.37,1.25-1.52,1.6-1.48s1.35,1,1.66,1.28a1.66,1.66,0,0,1,.65,1.27C437.67,616.24,436.42,617.53,435.9,618.56Z" />
        <path class="cls-3" d="M363.31,657.08c-.91.58-2.4,2.3-3.58,2.14a3,3,0,0,1-2.11-2.48,3,3,0,0,1,2.37-2.17C361.18,654.56,362.47,656.41,363.31,657.08Z" />
        <path class="cls-3" d="M344.08,621.6c-.86.66-2.22,2.49-3.42,2.44a3,3,0,0,1-2.31-2.27,2.94,2.94,0,0,1,2.2-2.3C341.74,619.35,343.16,621,344.08,621.6Z" />
        <path class="cls-3" d="M368.48,633.66c-.67-.91-2.07-2-2.37-3.14s1.25-2.28,1.91-3.12c.77.68,2.54,1.43,2.45,2.67S369,632.63,368.48,633.66Z" />
        <path class="cls-3" d="M382.29,595.66a2.26,2.26,0,0,1-.59,1.49c-.49.75-1,1.45-1.5,2.22-.65-.92-2.12-2.07-2.35-3.23s1.45-2.18,2.13-2.95C380.7,593.9,382.1,594.57,382.29,595.66Z" />
        <path class="cls-3" d="M399.05,660.59c-.84.64-2.2,2.49-3.37,2.42a3,3,0,0,1-2.23-2.37,3,3,0,0,1,2.2-2.36C396.83,658.19,398.19,660,399.05,660.59Z" />
        <path class="cls-3" d="M411.88,591.41c-.88.65-2.24,2.45-3.45,2.38a2.31,2.31,0,0,1-.07-4.62C409.57,589.07,411,590.79,411.88,591.41Z" />
        <path class="cls-3" d="M358.15,592.08c-.83.71-2.08,2.61-3.29,2.63a2.9,2.9,0,0,1-2.35-2.13,3,3,0,0,1,2-2.5C355.69,589.89,357.22,591.53,358.15,592.08Z" />
      </g>
    </g>
    <g id="eye">
      <g id="right-3" data-name="right">
        <path class="cls-1" d="M776.58,332.6C772.22,304.86,752,289,731,274.17c-3.49-2.47-6.77-7.19-11-5.6-1.61.6-1.12,7.28-1.34,11.2-.16,2.82,0,5.64-3,7.2-2.52,1.32-4.85.44-6.73-1.2-8.27-7.19-17.7-10.38-26.93-8.94-31,0-47.65,17.72-44.84,46.06.43,4.34,1.48,8.62,2.11,12.95.29,2-.29,3.41-2.73,3.69-1.76.19-5-1.45-4.8,2.08.18,3.23,1.65,6.28,5.35,7.35,8,2.31,16,4.77,24,7,9.62,2.69,19.52,7.86,28.85,7,7.89-.73,7.22,1.23,7.92,6.67,2.1,16.36-4.6,32-3.43,48.17.67,9.27,3.79,22,13.42,21,15.43-1.6,30.86-3.48,46.39-3.93,15.85-.45,35-19.61,34.59-35.86C788.31,376.26,780.08,354.87,776.58,332.6ZM671.42,298c3.94,1.07,7.18,4.8,11.3,7.83-2.22,1.95-4.54,4.92-5.35,4.55-5.27-2.42-10.22-5.57-15.27-8.48C665.24,300.51,668.84,297.35,671.42,298Zm-.09,47.37A40.16,40.16,0,0,1,663.8,344c-6.45-2.22-12.69-5-15.66-12,5,1.37,10.1,2.63,15.1,4.13,20.27,6.1,34.32-5.44,32.86-27-.09-1.39.59-2.84.92-4.26a19.57,19.57,0,0,1,2.43,3.08C707.89,324.62,693.26,345.55,671.33,345.41Z" />
        <path class="cls-4" d="M671.33,345.41A40.16,40.16,0,0,1,663.8,344c-6.45-2.22-12.69-5-15.66-12,5,1.37,10.1,2.63,15.1,4.13,20.27,6.1,34.32-5.44,32.86-27-.09-1.39.59-2.84.92-4.26a19.57,19.57,0,0,1,2.43,3.08C707.89,324.62,693.26,345.55,671.33,345.41Z" />
        <path class="cls-2" d="M682.72,305.87c-2.22,1.95-4.54,4.92-5.35,4.55-5.27-2.42-10.22-5.57-15.27-8.48,3.14-1.43,6.74-4.59,9.32-3.9C675.36,299.11,678.6,302.84,682.72,305.87Z" />
      </g>
      <g id="left-3" data-name="left">
        <path class="cls-1" d="M387.79,295.11c-17.67-20.71-73.13-12.29-85,12.64-1.91,4,.49,5.52,3.58,6.2,7.68,1.67,12.94,6.14,16.4,13.13,7.93,16,21.49,22.52,40.78,23.13,10.31-2,22.82-4.84,35.48-.85.47.15,1.92-.93,1.88-1.37C399.62,329.58,400.81,310.39,387.79,295.11Zm-24.34,48.7c-15.57-2.67-31.69-9.34-41-27-1.1-2.09-.75-5-1.08-7.46,2.23,1.41,5.66,2.32,6.49,4.32,7.48,18.21,22.89,22.27,40,23.78,2.75.25,5.44,1.32,8.16,2C373.12,341.76,370.36,344.36,363.45,343.81Zm11.31-35.1c-2.32-.12-4.5-2.87-6.75-4.48,2.39-2.27,4.46-5.5,7.29-6.46,1.66-.57,4.53,2.46,7.89,4.5C378.77,305.83,376.69,308.82,374.76,308.71Z" />
        <path class="cls-4" d="M376,339.5c-2.91,2.26-5.67,4.86-12.58,4.31-15.57-2.67-31.69-9.34-41-27-1.1-2.09-.75-5-1.08-7.46,2.23,1.41,5.66,2.32,6.49,4.32,7.48,18.21,22.89,22.27,40,23.78C370.62,337.73,373.31,338.8,376,339.5Z" />
        <path class="cls-2" d="M383.19,302.27c-4.42,3.56-6.5,6.55-8.43,6.44-2.32-.12-4.5-2.87-6.75-4.48,2.39-2.27,4.46-5.5,7.29-6.46C377,297.2,379.83,300.23,383.19,302.27Z" />
      </g>
    </g>
  </g>
</svg>