<svg xmlns="http://www.w3.org/2000/svg" width="12rem" height="12rem" viewBox="0 0 1200 1200">
  <filter id="f1">
    <feGaussianBlur stdDeviation="4"/>
  </filter>
  <g id="zelda">
    <g id="face">
      <path id="outline" d="M946.18,87c-27.67-20.62-58.73-35.43-89.38-51C840,27.34,823.9,16.61,808.05,5.79c-4.37-3-9.29-4.53-14.45-5.79h0c-2.87.81-5.73.75-8.59,1h-.07c-7.23.45-14.59,2.63-21.28,5.33C736,17.48,707.42,26.11,681.09,40.8c-10.52,5.88-23.28,0-34.7-2.77-28.12-6.74-55.68-8.32-83.48,2.67-12.32,4.88-25.78,4.8-39.33,1.34-6.61-1.69-14.35,1-21.57,1.89-16,1.94-30-6.31-45-9.09-18.48-3.41-38-4.83-55.84.74-26.07,8.12-49.57,7.56-73.56-6.78-11.56-6.91-26.66-7.69-38.52-14.25C270.65,4.36,251.43,2.07,231.19,2.12c-11.15,0-15.37,10.42-23.83,14.7q-15.27,7.71-30.55,15.45l-.24.13c-.67.36-1.34.7-2,1l-.31.15c-25.3,12.91-50.43,26.13-74.83,40.6C76.2,87.94,55,105,27.33,109c-9.09,1.31-17.57,6.6-27.33,4.16v3.92c2.52-.19,3,1.85,3.64,3.39,3.14,7.16,7.22,13.86,10.18,21.12,3.62,8.87,10.4,14.23,19.09,17.63,8,3.11,15.19,2.24,21.91-3,5.62-4.4,11.36-8.65,16.83-13.25,5.74-4.82,12.23-8.52,18.64-12.32a21.46,21.46,0,0,1,20-1.44c12.24,5,23.12,12.37,33.76,20.07a18.71,18.71,0,0,1,8,17.37c-.33,4.88.19,9.81-.12,14.68A22.11,22.11,0,0,0,158.74,199c9.22,9.38,18.42,18.76,28.35,27.42,8.6,7.5,17.43,14.54,27.53,19.88a10.19,10.19,0,0,1,5.47,6.52c1,3.75,3.6,6.53,6,9.37a19.87,19.87,0,0,1,4.61,10c1.46,9,4.59,17.67,5.18,26.87a299.33,299.33,0,0,1,0,40.07,24.29,24.29,0,0,0-.3,2.92c.93,16.19-1.37,32.24-2.28,48.34-.66,11.71.15,23.49-1.54,35.16-.62,4.26.46,8.46.86,12.66,3.69,38.24,14.54,73.88,38.51,104.43,9.41,12,19,23.89,30.56,34,6.93,6.07,13.12,13.07,15.72,22.49a34.77,34.77,0,0,1,1.52,10.6,136.81,136.81,0,0,0,1.16,23.43c3,22.55,12.82,40.86,34.24,50.46,12.57,5.64,24.46,13.56,38.94,14.07,2.73.09,5.47.42,8.22.43,9.37.05,18.75-.32,28.08,1,7.53,1.08,15.08,1.77,21.4,6.88,14,11.3,30.3,17.16,47.74,20.36,5.88,1.08,11.79,2,17.59,3.59a11.59,11.59,0,0,0,5.29.34c15.18-3.13,30.67-5.08,45-11.51a83.52,83.52,0,0,0,18.26-11.06,38,38,0,0,1,18-7.82,156.43,156.43,0,0,1,29-1.79c14.22.25,27.61-2.49,39.67-10.58,3.89-2.6,8.61-3.41,12.73-5.86,16.67-9.93,25.35-24.83,28.77-43.66,1.69-9.26,1.7-18.49,1.67-27.78a38,38,0,0,1,11.49-28.1,402.35,402.35,0,0,0,35.13-39.78c13.65-17.85,22.32-38.16,28.79-59.49,5.68-18.68,8-37.91,8-57.42.06-19.73-1.38-39.39-2.42-59.08-1.08-20.47-2.17-41.06-1.3-61.6.53-12.58,4.15-24.73,6.56-37a10.65,10.65,0,0,1,3-5.53,29.29,29.29,0,0,0,3.58-4.2c0-.06.07-.11.1-.16a5.14,5.14,0,0,1,.32-.49.6.6,0,0,1,.09-.15,16.17,16.17,0,0,0,2.21-5.75c.43-2.44,2.45-3.77,4.47-4.88,17.84-9.85,32.46-23.55,45.81-38.79,2.89-3.3,6.1-6.3,9.18-9.43a20.07,20.07,0,0,0,6.1-15.41c-.17-5.06.29-10.14-.1-15.17-.71-9.4,3.56-16.2,10.87-21,8.25-5.43,16.39-11.06,25.14-15.71,9.44-5,18.2-4.78,27.45,1,10.23,6.43,19.24,14.35,28.59,21.84,13.17,10.54,31.83,7,39.75-8.25,4.19-8.08,7.73-16.52,11.71-24.71.8-1.62,1.1-3.91,3.75-4v-3.92C995.32,110.43,969.23,104.13,946.18,87ZM1006.64,127c-3.48,8.54-6.74,18.87-15.47,21.57-10.78,3.34-21.39.66-31.56-7.41-13-10.3-24.23-22.21-43.4-25.66-15.16-2.72-28.15-18.25-41.88-28.4-18-13.28-37.62-22.79-60.17-19.56-20.58,3-40.64-10-60.92-.74a87.16,87.16,0,0,0-16.42,9.47c-6.78,5.17-12,10.69-7,21.08,9.76,20.17,18.24,41,27.25,61.5,1.41,3.22,4.57,4.76,7,3.16,1.25-.85.83-5.39,0-7.9-1.1-3.44-3.65-6.39-4.88-9.81-1.46-4.1-.87-8.2,3.09-10.84,4.37-2.9,8.58-2.05,12.4,1.29,7.81,6.83,8.65,17.55,14.1,25.79,3.29,5,7.41,8.24,12.56,7,3.78-1,1.73-6.28,1.41-9.39-1.46-14.13,4.9-26.59,7.86-39.75.86-3.8.48-7.64-2.47-8.88s-4.52,2.85-5.77,5.29a42.39,42.39,0,0,0-3.06,8.59c-.91,3.36-1.86,7.16-6,6.55-4.44-.65-5.29-4.71-5.3-8.71,0-7,.78-14.13-.12-21-2-15.34,6.95-21.25,19.4-23.8,25.1-5.12,68.86,14.92,79.6,36,8,15.74,1.07,31.48-15.45,35.38-4,.94-5.16,4.17-4.48,8,6,33.5-3.3,52.53-32.86,69-10.91,6.09-21.38,13.05-31.73,20.09-5.58,3.79-8.63,1.81-10.16-3.57a158.25,158.25,0,0,1-4-19.22c-.51-3.23-1.46-6.36-4.8-6-3.13.37-4.28,3.46-3.63,6.87,3.28,17.27,9.83,34.74,8.92,51.81-1.25,23.51.95,46.7,1.44,70,.53,25.42,2.48,50.88,5.28,76.16,2.33,21.16-6.63,37.68-17.54,54-8.19,12.26-14.13,25.86-23.59,37.42-7.27,8.88-16.17,13.87-26.53,10.47-13.3-4.36-15.17,6.84-18.54,13.08-6.86,12.66-12.65,14.38-23,3.75a32.89,32.89,0,0,0-4.09-3.08c.85,1.41,1.41,3.2,2.61,4.19,10.82,8.93,9.18,22.76,13.11,34.32,5.61,16.5,6.06,34.3,3.31,50.9-6,36.22-22,68.36-66.36,66.91-17.2-.56-34.79-2-50.5-9.69-6.43-3.17-12-9.62-16.08-15.84-7.84-12-20.85-21.39-18-39,1.33-8.31,2.43-14.31,11.47-17.54,14.21-5.08,19.09-18.79,25.25-31.09a86.72,86.72,0,0,1,6.44-10.14c6-8.68,8.52-18,6.64-28.65-2-11.46,1.24-21.74,8.51-30.81A9,9,0,0,0,609,500c-10.8-17.83-23-34.69-39.06-48a22,22,0,0,0-14.31-5.31c-22.6.26-45.22.59-67.8-.09-11.88-.36-20.37,3.3-28.1,12.73-9.55,11.65-20.16,22.27-28.43,35.16-5,7.72-4.54,14.2.25,20.18,5.62,7,8.05,14.59,6.32,22.9-3,14.44,1.74,26.15,10.2,37.24,9.26,12.15,12.19,28.92,28.45,36,15.77,6.86,18.22,26.84,6.27,39.76-5.29,5.72-9.8,12.2-14.44,18.5-12.42,16.84-30.82,19.51-49.46,20.83-12.75.91-25.09,3.37-38.48-1.13-20.89-7-31.76-21.74-39.35-40.74-5.06-12.65-9.22-25.47-7.59-39.67,4.3-24.16,2-50.39,20.87-70.4.57-.62.21-2.14.29-3.23-1.09.34-2.44.38-3.21,1.08-4,3.59-6.87,8.46-12.9,9.31-12.58,1.79-10.59-11-15.61-16.54-4.38-4.85-5.58-9.47-14.37-7.33C293.31,524.9,280,515,269.49,496.61c-10.11-17.68-23.13-34-30.89-52.62-5.56-13.32-3-29.44-1.29-44.35.12-1.1.69-2.16.75-3.26,1.24-24.9,1.88-49.85,3.8-74.7,2.46-32-1.59-64.66,9.56-95.8,1.31-3.66,1.84-8.92-3.2-9.64-4.85-.69-4.11,4.71-5.41,8-2.07,5.34-2.64,10.77-3.61,16.27-.72,4.06-3.19,9.35-9.13,5.1-18.68-13.37-41.13-20.79-57.33-38.14C159.24,193.05,157.69,176.14,161,158c1.14-6.27.6-10.5-7-10.27-6.45.18-11.7-3.77-13.39-8.7-3.41-9.91-4.93-21.48,2.56-29.83,22-24.52,49.62-36.57,82.63-32,11.09,1.52,19.51,7.94,17.92,21.93-.92,8-.33,16.28-.48,24.43-.07,3.84-2.62,6.5-5.82,6.69-2.82.16-4.68-2.62-5.5-5.83a43,43,0,0,0-4.07-10.75c-1.08-1.91-2.62-5.6-5.5-4.14-2.69,1.36-3.6,4.93-2.64,8.09C224.39,133,230,148.31,228,165c-.11.89.95,2.76,1.48,2.76,4.45,0,9-.57,11.46-4.83,3.57-6.29,6.43-13,9.87-19.35,3.92-7.22,8.76-15.26,18.2-10.46,10.52,5.35,2.59,13.21-.12,19.46a17.17,17.17,0,0,0-1.49,9.24c0,.31,2,.57,3,.55,3.84-.06,4.82-3.1,6.1-6,9.38-21,19.3-41.87,28.07-63.17,5.33-13-7.41-16-14.33-20.7-12.91-8.79-26.64-11-42.85-6.29-12.26,3.57-26.31.8-39.57,1-25.32.39-45.06,13.54-64.91,27.61-13.51,9.58-24.72,22.81-44.45,23.46-9.25.3-18.34,11.56-27.15,18.32-9.58,7.34-18.56,15-32.08,13.08-8.61-1.2-24.13-17.48-23.31-26.31A3.24,3.24,0,0,1,18,121.18c37.4-5.68,66.56-28.5,98.33-46.54A1279.21,1279.21,0,0,1,233.65,16c19.41-8.53,40.48.21,60.29,6,14.63,4.26,27.85,11.47,39.92,20.58,14.93,11.27,31,9.16,47.76,6.49,19.62-3.14,38.79-9.21,59.07-8.51,16.52.58,30.52,10.47,46,12.41,30.94,3.86,62,5.1,91.93-8.54,19-8.64,39.08-3.79,58.13,1.53,29.47,8.22,54.45,3.62,81.3-13.54C755.31,8.6,795.83,4.59,834.84,33.7c24.61,18.36,54.85,26.87,80.53,43.45,20.6,13.31,40.12,28.39,63.53,36.61a193.73,193.73,0,0,0,23.62,6.71C1006.89,121.4,1008.42,122.64,1006.64,127ZM573.92,515.36c6.34.59,13,7.92,11.68,15.57-1.82,10.47-14.4,6.9-21,12.52-2.18,1.87-7.26-5.79-6.65-11.74C557.19,520.25,564.46,514.47,573.92,515.36Zm-99.51,28.09c-6.71-5.71-19.47-1.89-21.41-12.57-1.4-7.78,5.85-15,11.82-15.58,9.41-.85,17.77,4.25,16.79,16.25C482.18,538,477,545.63,474.41,543.45Z" />
    </g>
    <g id="eye">
      <g id="right-3" data-name="right">
        <path class="outline" d="M776.58,332.6C772.22,304.86,752,289,731,274.17c-3.49-2.47-6.77-7.19-11-5.6-1.61.6-1.12,7.28-1.34,11.2-.16,2.82,0,5.64-3,7.2-2.52,1.32-4.85.44-6.73-1.2-8.27-7.19-17.7-10.38-26.93-8.94-31,0-47.65,17.72-44.84,46.06.43,4.34,1.48,8.62,2.11,12.95.29,2-.29,3.41-2.73,3.69-1.76.19-5-1.45-4.8,2.08.18,3.23,1.65,6.28,5.35,7.35,8,2.31,16,4.77,24,7,9.62,2.69,19.52,7.86,28.85,7,7.89-.73,7.22,1.23,7.92,6.67,2.1,16.36-4.6,32-3.43,48.17.67,9.27,3.79,22,13.42,21,15.43-1.6,30.86-3.48,46.39-3.93,15.85-.45,35-19.61,34.59-35.86C788.31,376.26,780.08,354.87,776.58,332.6ZM671.42,298c3.94,1.07,7.18,4.8,11.3,7.83-2.22,1.95-4.54,4.92-5.35,4.55-5.27-2.42-10.22-5.57-15.27-8.48C665.24,300.51,668.84,297.35,671.42,298Zm-.09,47.37A40.16,40.16,0,0,1,663.8,344c-6.45-2.22-12.69-5-15.66-12,5,1.37,10.1,2.63,15.1,4.13,20.27,6.1,34.32-5.44,32.86-27-.09-1.39.59-2.84.92-4.26a19.57,19.57,0,0,1,2.43,3.08C707.89,324.62,693.26,345.55,671.33,345.41Z" />
        <path class="iris" d="M671.33,345.41A40.16,40.16,0,0,1,663.8,344c-6.45-2.22-12.69-5-15.66-12,5,1.37,10.1,2.63,15.1,4.13,20.27,6.1,34.32-5.44,32.86-27-.09-1.39.59-2.84.92-4.26a19.57,19.57,0,0,1,2.43,3.08C707.89,324.62,693.26,345.55,671.33,345.41Z" />
      </g>
      <g id="left-3" data-name="left">
        <path class="outline" d="M387.79,295.11c-17.67-20.71-73.13-12.29-85,12.64-1.91,4,.49,5.52,3.58,6.2,7.68,1.67,12.94,6.14,16.4,13.13,7.93,16,21.49,22.52,40.78,23.13,10.31-2,22.82-4.84,35.48-.85.47.15,1.92-.93,1.88-1.37C399.62,329.58,400.81,310.39,387.79,295.11Zm-24.34,48.7c-15.57-2.67-31.69-9.34-41-27-1.1-2.09-.75-5-1.08-7.46,2.23,1.41,5.66,2.32,6.49,4.32,7.48,18.21,22.89,22.27,40,23.78,2.75.25,5.44,1.32,8.16,2C373.12,341.76,370.36,344.36,363.45,343.81Zm11.31-35.1c-2.32-.12-4.5-2.87-6.75-4.48,2.39-2.27,4.46-5.5,7.29-6.46,1.66-.57,4.53,2.46,7.89,4.5C378.77,305.83,376.69,308.82,374.76,308.71Z" />
        <path class="iris" d="M376,339.5c-2.91,2.26-5.67,4.86-12.58,4.31-15.57-2.67-31.69-9.34-41-27-1.1-2.09-.75-5-1.08-7.46,2.23,1.41,5.66,2.32,6.49,4.32,7.48,18.21,22.89,22.27,40,23.78C370.62,337.73,373.31,338.8,376,339.5Z" />
      </g>
    </g>
  </g>
</svg>